# xmcd CD database file
#
# Track frame offsets:
#	150
#	30843
#	53216
#	71590
#	91282
#	103847
#	127546
#	155410
#	179712
#	195136
#	225973
#	249830
#	269341
#	292568
#
# Disc length: 3963 seconds
#
# Revision: 0
# Processed by: cddbd v1.5.2PL0 Copyright (c) Steve Scherf et al.
# Submitted via: CDex 1.70beta2
#
DISCID=a30f790e
DTITLE=Francesco Bonifazi - Air Play
DYEAR=2005
DGENRE=Jazz
TTITLE0=Willow Weep for Me
TTITLE1=Round Midnight
TTITLE2=Summertime
TTITLE3=Blue Skies
TTITLE4=Heaven
TTITLE5=Little Suede Shoes
TTITLE6=Stella by Starlight
TTITLE7=The Peacocks
TTITLE8=FunkyJ
TTITLE9=Lover Man
TTITLE10=Rain
TTITLE11=Hall Pass for the Mountain King
TTITLE12=Massafra
TTITLE13=Self Talk
EXTD=YEAR: 2005
EXTT0=
EXTT1=
EXTT2=
EXTT3=
EXTT4=
EXTT5=
EXTT6=
EXTT7=
EXTT8=
EXTT9=
EXTT10=
EXTT11=
EXTT12=
EXTT13=
PLAYORDER=
